<svg viewBox="284.57 156.08 296.15 289.35">
	<style>
		.primary { fill: #1f1e2f; }

		@media (prefers-color-scheme: dark) {
			.primary { fill: #f0f2f5; }
		}
	</style>
	<path class="primary" d="M494.3 315.9c0 23.8 19.3 43.2 43.2 43.2 23.8 0 43.2-19.3 43.2-43.2 0-22.6-17.4-41.2-39.5-43-1.2-.1-2.4-.2-3.6-.2s-2.4 0-3.6.2c-22.1 1.8-39.5 20.4-39.5 43Zm-209.7-30.4c0 23.8 19.3 43.2 43.2 43.2 23.8 0 43.2-19.3 43.2-43.2 0-23.8 19.3-43.2 43.2-43.2h.7c23.3-.4 42-19.2 42.4-42.4v-1.4c-.4-23.5-19.6-42.4-43.2-42.4-23.8 0-43.2 19.3-43.2 43.2 0 2.2-.2 4.4-.5 6.5 0 .6-.2 1.2-.3 1.8-.3 1.5-.7 3.1-1.1 4.5-.4 1.3-.9 2.6-1.4 3.8v.2c-.5 1.2-1.1 2.4-1.7 3.6-.3.6-.6 1.1-.9 1.7-.4.6-.8 1.2-1.2 1.9-.3.4-.5.8-.8 1.1-.9 1.3-1.9 2.6-3 3.7-.3.4-.6.7-1 1-.8.9-1.7 1.7-2.6 2.5-.4.3-.8.7-1.1 1-.5.4-1 .8-1.6 1.2-1.6 1.2-3.3 2.3-5 3.3-.6.3-1.1.6-1.7.9-.5.3-1 .5-1.6.7-.7.3-1.5.6-2.3.9-.5.2-1 .4-1.5.5-.9.3-1.8.6-2.7.8-.4.1-.8.2-1.3.3-.2 0-.5.1-.8.2-.6.1-1.3.3-1.9.4l-2.1.3c-.6 0-1.3.1-1.9.2h-3.1c-23.8 0-43.2 19.3-43.2 43.2m123.3 116.7c0 23.8 19.3 43.2 43.2 43.2 23.6 0 42.8-18.9 43.2-42.4v-3.8c0-.7-.1-1.3-.2-2 0-.7-.2-1.4-.3-2.1s-.2-1.3-.4-2c0-.2 0-.4-.1-.5-.1-.5-.2-1-.3-1.4-.2-.9-.5-1.7-.8-2.6-.2-.5-.4-1.1-.6-1.6-.2-.6-.5-1.3-.8-1.9-.5-1.3-1.2-2.5-1.8-3.7-.3-.6-.7-1.2-1-1.7 0 0 0-.1-.1-.2-.3-.5-.6-1-1-1.5-1.7-2.5-3.7-4.8-5.8-6.8-.3-.3-.7-.6-1-1-1.2-1.1-2.4-2.1-3.8-3-.4-.3-.7-.5-1.1-.8-3.4-2.3-7.1-4.1-11.1-5.3-.7-.2-1.3-.4-2-.6-.8-.2-1.6-.4-2.5-.6l-1.8-.3c-2.1-.3-4.3-.5-6.5-.5-23.8 0-43.2 19.3-43.2 43.2Z"/>
	<path class="primary" d="M302.6 387.1c0 23.8 19.3 43.1 43.2 43.2 23.8 0 43.2-19.3 43.2-43.2 0-23.8 19.3-43.2 43.2-43.2 23.6 0 42.8-18.9 43.2-42.4v-.7c0-22.6 17.4-41.2 39.5-43 1.2.1 2.4.2 3.6.2s2.4 0 3.6-.2c.6 0 1.2-.1 1.7-.2 18.6-2.3 33.5-16.5 37-34.7.1-.6.2-1.1.3-1.7 0-.5.2-1.1.2-1.6 0-.4.1-.9.1-1.3 0-.5 0-1 .1-1.6v-4.1c-1.2-22.8-20-40.9-43.1-40.9s-41.9 18.1-43.1 40.9v2.6c-.4 23.3-19.2 42-42.4 42.4h-.7c-23.8 0-43.2 19.3-43.2 43.2 0 23.8-19.3 43.2-43.2 43.2-23.8 0-43.2 19.3-43.2 43.2Z"/>
</svg>
