<?xml version="1.0" encoding="utf-8"?>
<!-- Generator: Adobe Illustrator 24.0.1, SVG Export Plug-In . SVG Version: 6.00 Build 0)  -->
<svg version="1.1" id="Calque_1" xmlns="http://www.w3.org/2000/svg" xmlns:xlink="http://www.w3.org/1999/xlink" x="0px" y="0px"
	 width="34pt" height="34pt"
	 viewBox="0 0 128 128" style="enable-background:new 0 0 128 128; padding: 2pt;" xml:space="preserve">
<style type="text/css">
	.st0{fill:#121327;stroke:#010202;stroke-width:5;stroke-miterlimit:10;}
	.st1{fill:#E13E13;}
</style>
<polygon class="st0" points="121.39,62.34 6.5,8.58 6.5,116.09 "/>
<g>
	<path class="st1" d="M63.09,25.59c-4.59,8.24-9.01,17.92-13.23,29.04c-3.65,9.52-6.53,18.78-8.64,27.78
		c-1.42,6.05-2.06,9.83-1.91,11.32c0.22,0.58,0.33,1.11,0.33,1.59c0,0.77-0.31,1.15-0.93,1.15c-0.77,0-2.01-0.66-3.72-1.97
		c-1.9-1.42-2.84-2.59-2.84-3.5c0-0.58,0.16-1.44,0.49-2.57c2.99-10.54,6.71-21.69,11.16-33.47c2.92-7.29,6.09-15.24,9.52-23.84
		c-10.43,2.55-17.88,5.61-22.37,9.19c-1.64,1.28-2.46,2.5-2.46,3.66c0,0.8,0.36,2.94,1.09,6.4c0.25,1.13-0.15,1.7-1.2,1.7
		c-0.73,0-1.29-0.35-1.7-1.04c-1.24-1.97-2.52-4.83-3.83-8.59c-0.26-0.84-0.38-1.6-0.38-2.3c0-2.73,2.11-4.96,6.34-6.67
		c1.49-0.62,9.04-3.17,22.64-7.66c3.21-1.06,5.4-2.31,6.56-3.77c0.84-1.02,1.57-1.53,2.19-1.53c0.58,0,1.31,0.33,2.19,0.98
		c1.02,0.73,1.53,1.35,1.53,1.86C63.91,23.83,63.63,24.57,63.09,25.59z M95.3,21.22c0.73,0.73,1.09,1.33,1.09,1.8
		c0,0.58-0.77,1.82-2.3,3.72c-4.01,4.96-9.92,11.28-17.72,18.98c-7.47,7.36-12.54,11.94-15.2,13.73c3.32,4.7,6.63,9.42,9.95,14.16
		c5.07,7.15,9.44,11.94,13.13,14.38c1.6,1.09,3.04,1.64,4.32,1.64c1.28,0,2.77-0.62,4.48-1.86c0.36-0.25,0.71-0.38,1.04-0.38
		c0.77,0,1.15,0.38,1.15,1.15c0,0.44-0.16,0.89-0.49,1.37c-1.09,1.71-3.48,4.21-7.16,7.49c-0.84,0.77-1.66,1.15-2.46,1.15
		c-0.95,0-2.02-0.49-3.23-1.48c-4.48-3.57-9.52-9.28-15.09-17.12c-5.83-8.2-9.88-13.29-12.14-15.26c-1.17,0.47-2.1,0.71-2.79,0.71
		c-1.28,0-1.99-0.95-2.13-2.84c-0.04-0.58-0.05-1.08-0.05-1.48c0-1.53,0.41-2.65,1.23-3.36s2.49-1.34,5-1.89
		c0.91-0.18,1.6,0.05,2.08,0.71c4.3-3.32,9.17-7.78,14.6-13.4c5.36-5.5,8.6-9.37,9.73-11.59c-2.3-1.35-3.45-2.46-3.45-3.34
		c0-0.69,0.66-1.18,1.97-1.48c1.82-1.28,3.99-3.34,6.51-6.18c1.06-1.2,2.19-1.8,3.39-1.8C92.14,18.76,93.66,19.58,95.3,21.22z"/>
</g>
</svg>
